# xmcd CD database file
#
# Track frame offsets:
#	150
#	42379
#	72341
#	102679
#	142536
#
# Disc length: 2611 seconds
#
# Revision: 1
# Processed by: cddbd v1.5.2PL0 Copyright (c) Steve Scherf et al.
# Submitted via: CDex 2.19
#
DISCID=420a3105
DTITLE=The Chick Corea and Steve Gadd Band - Chinese Butterfly [CD1)
DYEAR=2017
DGENRE=Jazz
TTITLE0=Chick's Chums
TTITLE1=Serenity
TTITLE2=Like I Was Sayin'
TTITLE3=A Spanish Song
TTITLE4=Chinese Butterfly
EXTD=YEAR: 2017
EXTT0=
EXTT1=
EXTT2=
EXTT3=
EXTT4=
PLAYORDER=
